<?xml version="1.0" standalone="no"?>
<!DOCTYPE svg PUBLIC "-//W3C//DTD SVG 20010904//EN"
 "http://www.w3.org/TR/2001/REC-SVG-20010904/DTD/svg10.dtd">
<svg viewBox="0 0 68 20" xmlns="http://www.w3.org/2000/svg">
<path
d="M66.7741 1.30612C66.7741 0.979592 66.8558 0.734694 66.8558 0.571429C66.9375 0.408163 66.9375 0.244898 67.0193 0.163265C67.101 0.0816327 67.101 0 67.1827 0C67.2644 0 67.2644 0 67.3462 0H67.8366C67.9183 0 67.9183 0 67.9183 0V0.0816327V8.81633V8.89796H67.8366H67.5096C67.3462 8.89796 67.2644 8.89796 67.2644 8.81633C67.1827 8.73469 67.1827 8.65306 67.1827 8.57143L67.3462 2.28571L66.6923 8.65306C66.6923 8.73469 66.6106 8.81633 66.5289 8.89796C66.4471 8.97959 66.2837 8.97959 66.2019 8.97959C66.1202 8.97959 65.9567 8.97959 65.875 8.89796C65.7933 8.81633 65.7116 8.73469 65.7116 8.65306L65.0577 2.28571L65.2212 8.57143C65.2212 8.65306 65.2212 8.73469 65.1394 8.81633C65.1394 8.97959 65.0577 8.97959 64.8942 8.97959H64.5673C64.4856 8.97959 64.4856 8.97959 64.4856 8.97959V8.89796V0.163265V0.0816327H64.5673H64.976C65.0577 0.0816327 65.1394 0.0816327 65.1394 0.0816327C65.2212 0.0816327 65.3029 0.163265 65.3029 0.244898C65.3846 0.326531 65.3846 0.489796 65.4664 0.653061C65.5481 0.816326 65.5481 1.06122 65.5481 1.38776L66.2019 6.77551L66.7741 1.30612Z"
fill="#FFF"/>
<path
d="M67.6731 9.71429C67.7548 9.71429 67.8366 9.71429 67.9183 9.79592C68 9.87756 68 9.95919 68 10.0408V10.3674C68 10.449 68 10.449 68 10.449H67.9183H64.7308C64.6491 10.449 64.6491 10.449 64.5673 10.3674C64.4856 10.2857 64.4856 10.2857 64.4856 10.2041V9.79592C64.4856 9.71429 64.4856 9.71429 64.5673 9.63266C64.6491 9.55103 64.6491 9.55103 64.7308 9.55103H67.6731V9.71429Z"
fill="#FFF"/>
<path
d="M2.77885 0C3.1875 0 3.59615 0.0816327 3.92308 0.163265C4.25 0.244898 4.57692 0.408163 4.82212 0.653061C5.06731 0.897959 5.23077 1.14286 5.39423 1.46939C5.39423 1.71429 5.47596 2.12245 5.47596 2.44898V8.16327C5.47596 8.57143 5.39423 8.89796 5.23077 9.22449C5.06731 9.46939 4.82212 9.71429 4.57692 9.87755C4.90385 10.0408 5.06731 10.2857 5.23077 10.5306C5.39423 10.7755 5.47596 11.102 5.47596 11.5102V17.551C5.47596 18.2857 5.23077 18.9388 4.74039 19.3469C4.25 19.7551 3.59615 20 2.69712 20H0.245192C0.163462 20 0.0817308 20 0 19.9184C0 19.8367 0 19.7551 0 19.6735V0.326531C0 0.244898 0 0.163265 0.0817308 0.0816327C0.0817308 0 0.163462 0 0.326923 0H2.77885ZM3.59615 2.44898C3.59615 2.20408 3.51442 1.95918 3.43269 1.79592C3.35096 1.63265 3.02404 1.63265 2.77885 1.63265H1.96154V8.97959H2.77885C3.10577 8.97959 3.26923 8.89796 3.43269 8.73469C3.59615 8.57143 3.59615 8.40816 3.59615 8.08163V2.44898ZM3.59615 11.5102C3.59615 11.2653 3.51442 11.0204 3.43269 10.8571C3.35096 10.6939 3.02404 10.6122 2.77885 10.6122H1.96154V18.3673H2.77885C3.10577 18.3673 3.26923 18.2857 3.43269 18.1224C3.59615 17.9592 3.59615 17.7959 3.59615 17.4694V11.5102Z"
fill="#FFF"/>
<path
d="M13.8125 2.44898C13.8125 1.71429 14.0577 1.06122 14.5481 0.653061C14.9567 0.244898 15.6923 0 16.5096 0C16.9183 0 17.3269 0.0816327 17.6539 0.163265C17.9808 0.244898 18.3077 0.408163 18.5529 0.653061C18.7981 0.897959 18.9615 1.14286 19.125 1.38776C19.2885 1.71429 19.2885 2.04082 19.2885 2.44898V17.551C19.2885 18.2857 19.0433 18.9388 18.5529 19.3469C18.0625 19.7551 17.4087 20 16.5096 20C16.101 20 15.6923 19.9184 15.3654 19.8367C15.0385 19.7551 14.7115 19.5918 14.4664 19.3469C14.2212 19.102 14.0577 18.8571 13.8942 18.6122C13.7308 18.2857 13.7308 17.9592 13.7308 17.551V2.44898H13.8125ZM17.3269 2.44898C17.3269 2.20408 17.2452 1.95918 17.1635 1.79592C17 1.71429 16.8365 1.63265 16.5096 1.63265C16.2644 1.63265 16.0192 1.71429 15.8558 1.87755C15.6923 2.04082 15.6923 2.20408 15.6923 2.44898V17.551C15.6923 17.7959 15.774 18.0408 15.8558 18.2041C15.9375 18.3673 16.1827 18.449 16.5096 18.449C16.7548 18.449 17 18.3673 17.1635 18.2041C17.3269 18.0408 17.4087 17.8776 17.4087 17.551V2.44898H17.3269Z"
fill="#FFF"/>
<path
d="M30.3221 0C31.1394 0 31.7933 0.244898 32.3654 0.653061C32.8558 1.06122 33.101 1.71429 33.101 2.44898V17.551C33.101 18.2857 32.8558 18.9388 32.3654 19.3469C31.875 19.7551 31.2212 20 30.3221 20H27.8702C27.7885 20 27.7067 20 27.625 19.9184C27.5433 19.8367 27.5433 19.7551 27.5433 19.6735V0.326531C27.5433 0.244898 27.5433 0.163265 27.625 0.0816327C27.7067 0 27.7885 0 27.8702 0H30.3221ZM31.1394 2.44898C31.1394 2.20408 31.0577 1.95918 30.976 1.79592C30.8942 1.63265 30.649 1.63265 30.3221 1.63265H29.5048V18.449H30.3221C30.649 18.449 30.8125 18.3673 30.976 18.2041C31.1394 18.0408 31.1394 17.8776 31.1394 17.551V2.44898Z"
fill="#FFF"/>
<path
d="M42.4183 0C42.6635 0 42.8269 0.0816327 42.9904 0.163265C43.1539 0.244898 43.3173 0.489796 43.3173 0.734694V8.97959H44.9519V0.734694C44.9519 0.489796 45.0337 0.326531 45.1971 0.244898C45.3606 0.163265 45.5241 0 45.7692 0H46.5866C46.6683 0 46.75 0 46.8317 0.0816327C46.9135 0.163265 46.9135 0.244898 46.9135 0.326531V19.7551C46.9135 19.8367 46.9135 19.9184 46.8317 20C46.75 20.0816 46.75 20.0816 46.5866 20.0816H45.7692C45.5241 20.0816 45.2789 20 45.1154 19.8367C45.0337 19.5918 44.9519 19.4286 44.9519 19.1837V10.6122H43.3173V19.1837C43.3173 19.4286 43.2356 19.6735 43.0721 19.7551C42.9087 19.8367 42.7452 20 42.4183 20H41.601C41.5192 20 41.4375 20 41.3558 19.9184C41.274 19.8367 41.274 19.7551 41.274 19.6735V0.326531C41.274 0.244898 41.274 0.163265 41.3558 0.0816327C41.5192 0 41.5192 0 41.6827 0H42.4183Z"
fill="#FFF"/>
<path
d="M55.1683 0.734694C55.1683 0.489796 55.25 0.326531 55.4135 0.244898C55.5769 0.163265 55.7404 0 55.9856 0H56.8029C56.8846 0 56.9664 0 57.0481 0.0816327C57.1298 0.163265 57.1298 0.244898 57.1298 0.326531V19.5102C57.1298 19.6735 57.0481 19.7551 56.9663 19.8367C56.8846 19.9184 56.7212 20 56.6394 20H55.7404C55.5769 20 55.4952 19.9184 55.4135 19.8367C55.3317 19.7551 55.25 19.5918 55.25 19.5102V0.734694H55.1683Z"
fill="#FFF"/>
        </svg>
